<svg id="Capa_1" enable-background="new 0 0 512 512" height="512" viewBox="0 0 512 512" width="512" xmlns="http://www.w3.org/2000/svg"><g><path d="m376 30h-39.089c-22.563-18.829-50.584-30-80.911-30s-58.348 11.171-80.911 30h-39.089c-41.355 0-75 33.645-75 75v90c0 24.813 20.187 45 45 45h42.068c2.051 3.029 4.205 5.965 6.451 8.81-39.083 50.764-60.755 113.415-63.267 175.672-17.592 6.119-30.252 22.868-30.252 42.518 0 24.813 20.187 45 45 45h38.377c19.399 0 36.555-12.365 42.691-30.77l14.806-44.418c16.259 9.891 34.884 15.188 54.126 15.188s37.867-5.297 54.126-15.188l14.806 44.418c6.135 18.404 23.291 30.77 42.69 30.77h38.378c24.813 0 45-20.187 45-45 0-19.65-12.66-36.399-30.252-42.518-2.512-62.253-24.182-124.906-63.267-175.672 2.246-2.845 4.4-5.781 6.451-8.81h42.068c24.813 0 45-20.187 45-45v-90c0-41.355-33.645-75-75-75zm-15 120c0 60.348-39.184 110.426-90 118.77v-31.35c17.459-6.192 30-22.865 30-42.42 0-24.813-20.187-45-45-45s-45 20.187-45 45c0 19.555 12.541 36.228 30 42.42v31.351c-50.816-8.344-90-58.422-90-118.77 0-66.168 47.103-120 105-120s105 53.831 105 119.999zm-105 60c-8.271 0-15-6.729-15-15s6.729-15 15-15 15 6.729 15 15-6.729 15-15 15zm-150 0c-8.271 0-15-6.729-15-15v-90c0-24.813 20.187-45 45-45h12.068c-16.987 25.087-27.068 56.259-27.068 90 0 21.323 4.034 41.616 11.284 60zm300 242c8.271 0 15 6.729 15 15s-6.729 15-15 15h-38.377c-6.466 0-12.185-4.122-14.229-10.256l-21.425-64.276c-3.464-10.39-16.58-13.692-24.544-6.148-14.084 13.336-32.346 20.68-51.425 20.68s-37.341-7.344-51.424-20.681c-7.956-7.532-21.076-4.258-24.544 6.148l-21.424 64.275c-2.045 6.135-7.764 10.257-14.23 10.257h-38.378c-8.271 0-15-6.729-15-15s6.729-15 15-15c8.284 0 15-6.716 15-15 0-59.592 19.806-119.382 54.735-166.469 47.111 38.834 112.31 39.749 160.531 0 34.928 47.088 54.734 106.878 54.734 166.47 0 8.284 6.716 15 15 15zm15-257c0 8.271-6.729 15-15 15h-26.284c7.25-18.384 11.284-38.677 11.284-60 0-33.741-10.081-64.913-27.068-90h12.068c24.813 0 45 20.187 45 45z"/></g></svg>