<svg id="aguativa" xmlns="http://www.w3.org/2000/svg" viewBox="0 0 722.7 498.9" width="181" height="123"><style>.st0{fill:#2c4390}</style><path class="st0" d="M105.8 439.2l-17.9-98.3c-.4-2.1-2.3-3.7-4.5-3.7H65.7c-1.9 0-4.2 1.3-5.2 2.9l-60 99c-.6 1-.7 2.1-.2 3 .5.9 1.5 1.4 2.7 1.4h17.8c2 0 4.2-1.3 5.1-3l10.7-19.2c.4-.8 1.7-1.5 2.6-1.5H78c.7 0 1.5.6 1.6 1.4l2.8 18.6c.3 2.1 2.2 3.8 4.4 3.8h15.5c1.1 0 2.1-.5 2.8-1.3.6-1 .9-2.1.7-3.1zM76 399.6c0 .3 0 .5-.2.7-.1.2-.4.3-.7.3h-27s0-.1.1-.2l22.1-39.9 5.7 39.1z"/><path class="st0" d="M193.7 368.5c.3-1.1.1-2.2-.6-3-.6-.8-1.6-1.3-2.8-1.3h-13.9c-2.1 0-4.1 1.6-4.5 3.7l-1 5.2c-5.3-6.8-13.5-10.7-22.5-10.7-26 0-40.1 24.3-40.1 47.2 0 15.6 7.3 33.7 27.9 33.7 9 0 17-3.4 22.7-9.4-3.9 13.8-8.3 24.1-25.6 24.1-7.8 0-14.8-2.3-21.1-4.8-.5-.2-1-.3-1.5-.3-1.7 0-3.1 1.1-3.6 2.7l-3.5 11.2c-.7 2.1.5 4.4 2.6 5.1 8.6 2.9 18.2 4.4 28.5 4.4 13.7 0 24-3.8 31.4-11.7 6.5-6.8 10.8-16.6 13.5-30.6l12.2-57.3c.7-3.2 1.3-6 1.9-8.2zM164 395.3c0 14.4-6.5 29.8-20.9 29.8-10.4 0-11.2-12-11.2-15.6 0-10 5.6-28.8 19.2-28.8 8.9 0 12.9 7.3 12.9 14.6zM274.6 365.5c-.6-.8-1.7-1.3-2.8-1.3h-14.7c-2.1 0-4.1 1.6-4.5 3.7l-7.6 35.8c-3.5 15.8-9.8 23.2-20 23.2-5.6 0-9.4-3.7-9.4-9.2 0-4.9 1-9.6 1.9-14.1l7.2-35.1c.2-1.1 0-2.2-.7-3-.7-.8-1.7-1.3-2.8-1.3h-14.7c-2.1 0-4.1 1.6-4.5 3.7l-7.4 34.5-.3 1.3c-1 4.5-2.3 10.2-2.3 15.6 0 15.7 10.3 25.9 26.3 25.9 8.5 0 15.4-3.8 19.9-7.3l-.2 1.3c-.2 1.1.1 2.2.7 3 .7.8 1.7 1.3 2.8 1.3h14.2c2.1 0 4-1.7 4.4-3.8.4-2.5 1-5.8 1.5-8.3l13.5-62.8c.4-1.2.2-2.3-.5-3.1zM313.1 362.5c-8 0-15.8 1.3-23.9 3.8-1.9.6-3.5 2.5-3.9 4.5l-1.9 10.7c-.2 1.3.2 2.1.5 2.5.7.9 2 1.1 3.3.5 7.4-3.1 14.8-4.7 22.1-4.7 3.2 0 13.8.6 13.8 8.5 0 1.3 0 2.6-.1 3.8-.1.6-.9 1.3-1.6 1.3H317c-13.2 0-48.2 0-48.2 28.5 0 14.3 9.6 23.2 25 23.2 9 0 15.9-3.1 22.7-10.4l-.8 4.4c-.2 1.1.1 2.2.7 3 .7.8 1.7 1.3 2.8 1.3h11.5c2.1 0 4.1-1.7 4.4-3.8.9-5.9 2.5-13.7 4-21.4 2.5-12.2 5-24.8 5-30.8 0-15.8-11.3-24.9-31-24.9zm1.8 45.6h4.4c.2 0 .4.1.5.2.1.1.1.4 0 .5-3.2 11.4-7.9 19-20.5 19-4.2 0-8.7-2.1-8.7-6.6.1-10.8 13.2-13.1 24.3-13.1zM389.2 426c-2.1.6-4.6.9-6.8.9-3.8 0-6.1-2.3-6.1-6 0-3.2.5-5.8.8-7.1l6.7-30.8c.2-.7 1-1.4 1.8-1.4h12.6c2.1 0 4.1-1.6 4.5-3.7l2-9.4c.2-1.1 0-2.2-.7-3-.7-.8-1.7-1.3-2.8-1.3h-12.6c-.2 0-.4-.1-.6-.2-.1-.1-.1-.3-.1-.6l3.8-17.6c.2-1 0-2-.5-2.6-.7-.9-2-1.2-3.3-.8l-10.2 3.3c-2 .7-3.3 2.7-3.8 4.3-2 6.5-7.1 14.2-19.6 14.2-2.1 0-4.1 1.6-4.5 3.7l-2 9.4c-.2 1.1 0 2.2.7 3 .7.8 1.7 1.3 2.8 1.3h9.2c.2 0 .5.1.6.2.1.1.1.4.1.6l-5.1 23.2c-1.4 6.4-2.5 12.1-2.5 18.1 0 14 8.4 21.4 24.4 21.4 2.7 0 5.6-.6 8.4-1.2 1.9-.4 3.7-2.2 4.2-4.2l2.3-10.3c.3-1.3-.1-2.1-.5-2.6-.7-.8-1.9-1.1-3.2-.8zM430.6 364.2H416c-2.1 0-4.1 1.6-4.5 3.7l-15.2 71.2c-.2 1.1 0 2.2.7 3 .6.8 1.7 1.3 2.8 1.3h14.7c2.1 0 4.1-1.6 4.5-3.7l15.2-71.2c.2-1.1 0-2.2-.7-3-.8-.8-1.8-1.3-2.9-1.3zM435.4 342.2h-14.7c-2.1 0-4.1 1.6-4.5 3.7l-1.9 9.4c-.2 1.1 0 2.2.7 3 .6.8 1.7 1.3 2.8 1.3h14.7c2.1 0 4.1-1.6 4.5-3.7l2-9.4c.2-1.1 0-2.2-.7-3-.8-.8-1.8-1.3-2.9-1.3zM518.9 365.6c-.5-.9-1.5-1.4-2.7-1.4h-15.8c-2 0-4.2 1.3-5.1 3l-27 50.3-6.8-49.5c-.3-2.1-2.2-3.8-4.4-3.8H442c-1.1 0-2.1.5-2.8 1.3-.7.8-.9 1.9-.8 3l12 71.2c.4 2.1 2.3 3.8 4.4 3.8h16.7c1.9 0 4.2-1.3 5.1-2.9l42-71.8c.7-1.2.8-2.3.3-3.2zM550.4 362.5c-8 0-15.8 1.3-23.9 3.8-1.9.6-3.5 2.5-3.9 4.5l-1.9 10.7c-.2 1.3.2 2.1.5 2.5.7.9 2 1.1 3.3.5 7.4-3.1 14.8-4.7 22.1-4.7 3.2 0 13.8.6 13.8 8.5 0 1.3 0 2.6-.1 3.8-.1.6-.9 1.3-1.6 1.3h-4.4c-13.2 0-48.2 0-48.2 28.5 0 14.3 9.6 23.2 25 23.2 9 0 15.9-3.1 22.7-10.4l-.8 4.4c-.2 1.1.1 2.2.7 3 .7.8 1.7 1.3 2.8 1.3H568c2.1 0 4-1.7 4.4-3.8.9-5.9 2.5-13.7 4-21.4 2.5-12.2 5-24.8 5-30.8 0-15.8-11.3-24.9-31-24.9zm1.8 45.6h4.4c.2 0 .4.1.5.2.1.1.1.4 0 .5-3.2 11.4-7.9 19-20.5 19-4.2 0-8.6-2.1-8.6-6.6 0-10.8 13.1-13.1 24.2-13.1zM262.4 470.9c.3-1.3.6-3 .9-4.9h5.6l-1 5.1h.1c1.9-3 5.4-5.9 11-5.9.6 0 1.6.1 2.7.6l-1.3 5.2c-1.1-.4-2.1-.6-2.5-.6-7.3 0-10.9 8-11.8 11.9l-3.3 15.9h-5.9l5.5-27.3zM306.4 497.6c-3.1.8-6.3 1.3-9.5 1.3-7.8 0-14.8-3.2-14.8-14.5 0-8.9 6.3-19.2 17.6-19.2 7.8 0 12.1 4.7 12.1 12.3 0 2.1-.3 4-.6 5.9h-22.7c-.1.7-.2 1.3-.2 2 0 6.8 4.2 8.7 9.9 8.7 3 0 6.2-.8 9.1-2l-.9 5.5zm-.7-18.6c.1-.9.2-1.7.2-2.5 0-3.8-2.3-6.5-6.8-6.5-4.9 0-8.6 4.2-9.9 9h16.5zM337 471.6c-1.6-.8-4.2-1.6-6.4-1.6-2.6 0-6 .7-6 3.9 0 5.5 11 5.7 11 14.7 0 7.8-7.1 10.3-12.2 10.3s-7-.7-9.4-1.5l1.1-5.1c2.3.9 4.8 1.8 7.4 1.8 3.2 0 6.8-1.3 6.8-5 0-5.5-11-6.3-11-14.5 0-6.8 6.8-9.5 12.1-9.5 2.8 0 5.7.7 8.4 1.8l-1.8 4.7zM360.1 465.2c8.7 0 14.3 5.2 14.3 14.1 0 10.9-6.4 19.6-18 19.6-8.8 0-14.7-4.8-14.7-14.3.1-10.7 6.6-19.4 18.4-19.4zm-3.8 28.9c6.7 0 11.8-7.6 11.8-14.8 0-4.8-2.8-9.3-8.2-9.3-7.9 0-11.8 8.3-11.8 15 0 5.2 2.6 9.1 8.2 9.1zM385.2 470.9c.3-1.3.6-3 .9-4.9h5.6l-1 5.1h.1c1.9-3 5.4-5.9 11-5.9.6 0 1.6.1 2.7.6l-1.3 5.2c-1.1-.4-2.1-.6-2.5-.6-7.3 0-10.9 8-11.8 11.9l-3.3 15.9h-5.9l5.5-27.3zM406.6 466h7.2l1.6-7.5 6.4-2.2-2 9.7h8.8l-.9 4.8h-8.9l-3 13.8c-.3 1.5-.9 4.9-.9 6.1 0 2.3 1.3 3.5 4.3 3.5 1.3 0 3-.3 4.2-.8l-.9 4.9c-1.3.5-4.1.7-5.8.7-5.6 0-7.7-3.7-7.7-7.1 0-2.1.8-5.8 1.1-7.6l2.8-13.5h-7.1l.8-4.8z"/><path d="M289.3 314.7c203-91.4 297.9 27.8 333 113.9 28.5 59.9 129.3 13.2 84.7-58.7-66.2-106-270.3-179.9-417.7-55.2z" fill-rule="evenodd" clip-rule="evenodd" fill="#009de0"/><path d="M504 209.5c75.5 36.6 146-22.8 165.5-34 34.3-27.7 77 22 36.9 56-42.7 36-155 49.9-202.4-22z" fill-rule="evenodd" clip-rule="evenodd" fill="#9ccff3"/><path d="M590.5 206.6c-63.9-55.5-149.7-14.4-172-8.1-41.1 18.6-69.4-41.5-20.7-64.8 52-25 160-10.3 192.7 72.9z" fill-rule="evenodd" clip-rule="evenodd" fill="#5ea443"/><path d="M634.9.4C684 5 719.5 46.9 714.1 93.9c-5.4 47-49.9 81.7-99 77.1-49.2-4.5-84.6-46.5-79.2-93.5 5.3-46.9 49.9-81.7 99-77.1z" fill-rule="evenodd" clip-rule="evenodd" fill="#f9dc07"/></svg>