<svg xmlns="http://www.w3.org/2000/svg" xmlns:xlink="http://www.w3.org/1999/xlink" width="69" height="66" viewBox="0 0 69 66">
  <defs>
    <clipPath id="clip-limpeza">
      <rect width="69" height="66"/>
    </clipPath>
  </defs>
  <g id="limpeza" clip-path="url(#clip-limpeza)">

    <g id="_002-broom" data-name="002-broom" transform="translate(-9.975 5.637)">
      <path id="Path_563" data-name="Path 563" d="M56.373,48.826a27.379,27.379,0,0,1-1.783-7h.818a.665.665,0,0,0,.665-.665,8.375,8.375,0,0,0-8.365-8.365h-.285V31.177a.665.665,0,0,0-.665-.665h-.475V6.556a1.806,1.806,0,1,0-3.612,0V30.511h-.475a.665.665,0,0,0-.665.665v1.616h-.285a8.375,8.375,0,0,0-8.365,8.365.665.665,0,0,0,.665.665h.818a27.346,27.346,0,0,1-1.784,7,.666.666,0,0,0,.586.982H55.787a.665.665,0,0,0,.585-.983ZM44,6.556a.475.475,0,1,1,.951,0V30.511H44ZM42.86,31.842h3.232v.951H42.86Zm-1.616,2.281h6.464a7.045,7.045,0,0,1,7,6.369H34.241a7.045,7.045,0,0,1,7-6.369ZM51.691,48.478a13.967,13.967,0,0,1-.808-2.865.666.666,0,1,0-1.311.232,16.729,16.729,0,0,0,.69,2.633H48.126a20.245,20.245,0,0,1-.773-4.318.665.665,0,0,0-1.322.145,25.378,25.378,0,0,0,.692,4.174H41.79a15,15,0,0,0,.465-2.688.666.666,0,0,0-1.326-.121,13.5,13.5,0,0,1-.522,2.809H38.042a39.35,39.35,0,0,0,.915-4.209.665.665,0,0,0-1.314-.213,37.448,37.448,0,0,1-.986,4.422H34.182A34.353,34.353,0,0,0,35.7,41.824H53.247a34.277,34.277,0,0,0,1.521,6.654Z" fill="#0090ff"/>
      <path id="Path_564" data-name="Path 564" d="M60.67,87.75H53.54a.665.665,0,0,0,0,1.331h7.13a.665.665,0,1,0,0-1.331Z" transform="translate(-12.629 -51.44)" fill="#0090ff"/>
    </g>
  </g>
</svg>
