<?xml version="1.0" encoding="utf-8"?>
<!-- Generator: Adobe Illustrator 24.3.0, SVG Export Plug-In . SVG Version: 6.00 Build 0)  -->
<svg version="1.1" id="Camada_1" xmlns="http://www.w3.org/2000/svg" xmlns:xlink="http://www.w3.org/1999/xlink" x="0px" y="0px"
	 viewBox="0 0 130 130" style="enable-background:new 0 0 130 130;" xml:space="preserve">
<style type="text/css">
	.st0{fill:#404040;}
	.st1{fill:#FFCE02;}
	.st2{fill:#9FA1A1;}
	.st3{fill:#161615;}
	.st4{fill:#FFC000;}
	.st5{fill:#E8E8E8;}
	.st6{fill:#5D5C5C;}
	.st7{fill:#FFFFFF;}
	.st8{clip-path:url(#SVGID_2_);}
	.st9{fill:none;stroke:#FFCD00;}
	.st10{clip-path:url(#SVGID_4_);}
	.st11{fill:none;stroke:#202020;}
	.st12{fill:#202020;}
	.st13{fill:#707070;}
	.st14{fill:#F2F2F2;}
	.st15{clip-path:url(#SVGID_6_);}
	.st16{clip-path:url(#SVGID_8_);}
	.st17{clip-path:url(#SVGID_10_);}
	.st18{clip-path:url(#SVGID_12_);}
</style>
<g id="Grupo_799_1_">
	<path id="Caminho_236_1_" class="st4" d="M64.7,10.78c-29.77,0-53.91,24.14-53.91,53.91c0,16.55,7.6,32.18,20.62,42.4l2.35-1.97
		h6.68v5.39h-4.14c4.62,2.88,9.65,5.03,14.93,6.39v-6.39h5.39v5.39H62v-5.39H56.6v-5.39h10.78v10.78H62v2.63
		c0.89,0.05,1.79,0.07,2.7,0.07c4.55,0,9.07-0.57,13.48-1.7v-6.39h-5.39v-5.39h5.39v-5.39h5.39V94.9c0.17,0.18,0.35,0.35,0.54,0.52
		c0.01,0,0.01,0.01,0.02,0.02l4.83,4.06v5.62h-5.39v10.08c3.33-1.24,6.52-2.82,9.53-4.69h-4.14v-5.39h6.68l2.35,1.97
		c23.42-18.39,27.5-52.28,9.11-75.7C96.87,18.38,81.24,10.78,64.7,10.78 M85.28,49.51c0,1.56-0.29,3.12-0.85,4.58l-3.09,7.59v27.76
		c0,1.78,0.61,3.51,1.73,4.9H72.78v10.78h-5.39V94.34H62v5.39h-5.39v5.39h-5.39v-5.39h-5.39v5.39h-5.39V99.5l4.79-4.03
		c0.02-0.02,0.03-0.04,0.05-0.05c1.75-1.49,2.76-3.68,2.75-5.98V61.66l-3.11-7.62c-0.55-1.44-0.83-2.98-0.83-4.52V36.22h8.47v6.03
		h7.89v-6.03h8.48v6.03h7.88v-6.03h8.47L85.28,49.51z"/>
	<path id="Caminho_237_1_" class="st4" d="M64.69,0C28.97-0.01,0.01,28.95,0,64.67c-0.01,35.72,28.95,64.69,64.67,64.7
		c35.72,0.01,64.69-28.95,64.69-64.67v-0.01C129.37,28.97,100.42,0.01,64.69,0 M64.69,123.98C31.94,123.99,5.39,97.45,5.38,64.7
		C5.37,31.95,31.92,5.39,64.67,5.39s59.31,26.54,59.31,59.29c0,0,0,0.01,0,0.01v0.01C123.98,97.44,97.44,123.98,64.69,123.98"/>
	<rect id="Retângulo_489_1_" x="72.78" y="83.56" class="st4" width="5.39" height="5.39"/>
	<rect id="Retângulo_490_1_" x="56.61" y="88.95" class="st4" width="5.39" height="5.39"/>


</g>
</svg>
