<svg xmlns="http://www.w3.org/2000/svg" xmlns:xlink="http://www.w3.org/1999/xlink" width="69" height="66" viewBox="0 0 69 66">
  <defs>
    <clipPath id="clip-pulmao">
      <rect width="69" height="66"/>
    </clipPath>
  </defs>
  <g id="pulmao" clip-path="url(#clip-pulmao)">

    <g id="_007-store" data-name="007-store" transform="translate(5 4)">
      <path id="Path_578" data-name="Path 578" d="M49.658,22.444H3.222a1.222,1.222,0,0,1,0-2.444H49.658a1.222,1.222,0,0,1,0,2.444Z" transform="translate(2.888 28.88)" fill="#1a1a1a"/>
      <path id="Path_579" data-name="Path 579" d="M49.658,11.444H3.222A1.222,1.222,0,1,1,3.222,9H49.658a1.222,1.222,0,0,1,0,2.444Z" transform="translate(2.888 12.996)" fill="#1a1a1a"/>
      <path id="Path_580" data-name="Path 580" d="M30.33,32.552H13.222A1.222,1.222,0,0,1,12,31.33V14.222A1.222,1.222,0,0,1,13.222,13H30.33a1.222,1.222,0,0,1,1.222,1.222V31.33A1.222,1.222,0,0,1,30.33,32.552ZM14.444,30.108H29.108V15.444H14.444Z" transform="translate(17.328 18.772)" fill="#1a1a1a"/>
      <path id="Path_581" data-name="Path 581" d="M16.722,22.776A1.222,1.222,0,0,1,15.5,21.554V14.222a1.222,1.222,0,0,1,2.444,0v7.332A1.222,1.222,0,0,1,16.722,22.776Z" transform="translate(22.382 18.772)" fill="#1a1a1a"/>
      <path id="Path_582" data-name="Path 582" d="M23.33,21.552H6.222A1.222,1.222,0,0,1,5,20.33V3.222A1.222,1.222,0,0,1,6.222,2H23.33a1.222,1.222,0,0,1,1.222,1.222V20.33A1.222,1.222,0,0,1,23.33,21.552ZM7.444,19.108H22.108V4.444H7.444Z" transform="translate(7.22 2.888)" fill="#1a1a1a"/>
      <path id="Path_583" data-name="Path 583" d="M9.722,11.776A1.222,1.222,0,0,1,8.5,10.554V3.222a1.222,1.222,0,1,1,2.444,0v7.332A1.222,1.222,0,0,1,9.722,11.776Z" transform="translate(12.274 2.888)" fill="#1a1a1a"/>
      <path id="Path_584" data-name="Path 584" d="M19.886,31.108H5.222A1.222,1.222,0,0,1,4,29.886V15.222A1.222,1.222,0,0,1,5.222,14H19.886a1.222,1.222,0,0,1,1.222,1.222V29.886A1.222,1.222,0,0,1,19.886,31.108ZM6.444,28.664h12.22V16.444H6.444Z" transform="translate(5.776 20.216)" fill="#1a1a1a"/>
      <path id="Path_585" data-name="Path 585" d="M8.222,21.332A1.222,1.222,0,0,1,7,20.11V15.222a1.222,1.222,0,1,1,2.444,0V20.11A1.222,1.222,0,0,1,8.222,21.332Z" transform="translate(10.108 20.216)" fill="#1a1a1a"/>
      <path id="Path_586" data-name="Path 586" d="M6.11,58.656H1.222A1.222,1.222,0,0,1,0,57.434V1.222A1.222,1.222,0,0,1,1.222,0H6.11A1.222,1.222,0,0,1,7.332,1.222V57.434A1.222,1.222,0,0,1,6.11,58.656ZM2.444,56.212H4.888V2.444H2.444Z" fill="#1a1a1a"/>
      <path id="Path_587" data-name="Path 587" d="M27.11,58.656H22.222A1.222,1.222,0,0,1,21,57.434V1.222A1.222,1.222,0,0,1,22.222,0H27.11a1.222,1.222,0,0,1,1.222,1.222V57.434A1.222,1.222,0,0,1,27.11,58.656Zm-3.666-2.444h2.444V2.444H23.444Z" transform="translate(30.324)" fill="#1a1a1a"/>
    </g>
  </g>
</svg>
