<svg xmlns="http://www.w3.org/2000/svg" xmlns:xlink="http://www.w3.org/1999/xlink" width="69" height="66" viewBox="0 0 69 66">
  <defs>
    <clipPath id="clip-ruptura">
      <rect width="69" height="66"/>
    </clipPath>
  </defs>
  <g id="ruptura" clip-path="url(#clip-ruptura)">

    <g id="_006-crack" data-name="006-crack" transform="translate(12 7)">
      <g id="Group_920" data-name="Group 920" transform="translate(0 0)">
        <g id="Group_919" data-name="Group 919">
          <path id="Path_576" data-name="Path 576" d="M75.107.435a1.009,1.009,0,0,0-1.25-.343L40.71,15.274a1.009,1.009,0,0,0,.42,1.926H51.484L32.135,30.957a1.009,1.009,0,0,0,.585,1.831h9.51L30.481,49.437a1.009,1.009,0,0,0,1.358,1.438L67.926,28.411a1.008,1.008,0,0,0-.429-1.859l-.023,0-.065,0h-.014l-9.936-.014L73.125,13.67a1.009,1.009,0,0,0-.64-1.789h0l-7.75,0L74.987,1.725A1.009,1.009,0,0,0,75.107.435ZM43.168,41.446,35,46.529l8.164-11.57ZM53.635,27.534h0v7.4l-8.449,5.26V31.78c0-.015,0-.03,0-.044s0-.025,0-.037a1,1,0,0,0-.05-.243l-.009-.026a1.032,1.032,0,0,0-.044-.1l-.006-.013,0,0A.989.989,0,0,0,45,31.2l-.017-.023q-.029-.039-.062-.076L44.9,31.08A1,1,0,0,0,44.815,31l-.013-.009a1.025,1.025,0,0,0-.089-.062l-.026-.016a1.014,1.014,0,0,0-.1-.051l-.01,0a1.007,1.007,0,0,0-.119-.042l-.024-.006a.993.993,0,0,0-.1-.021l-.032,0a1,1,0,0,0-.127-.009h-8.3l12.031-8.555v5.9a1.009,1.009,0,0,0,2.018,0V20.781l3.705-2.635v9.387Zm10.236,1.024-8.218,5.116V28.547ZM69.663,13.9,63.29,19.133V13.9ZM61.571,12.18h0a1.019,1.019,0,0,0-.088.1l-.018.025a1.023,1.023,0,0,0-.071.112l0,0a.981.981,0,0,0-.053.119l-.009.025a1.007,1.007,0,0,0-.053.259c0,.012,0,.024,0,.035s0,.024,0,.036V20.79L55.653,25.4V16.2h0v-.009s0-.009,0-.013q0-.038,0-.077c0-.011,0-.021,0-.032s-.005-.039-.009-.059,0-.024-.007-.036-.009-.036-.014-.054-.006-.024-.01-.036h0c-.009-.027-.018-.053-.029-.079l-.015-.033c-.008-.017-.015-.033-.024-.05l-.018-.031c-.009-.016-.019-.033-.03-.049l-.018-.027c-.012-.018-.025-.034-.038-.051l-.016-.02a1,1,0,0,0-.126-.126l-.022-.018-.048-.036-.029-.019-.047-.029-.031-.018-.057-.028-.033-.015-.07-.026-.035-.01-.054-.014-.036-.007-.06-.009-.031,0c-.031,0-.062,0-.093,0H45.756L69.529,4.293Z" transform="translate(-30.296 0)" fill="#1a1a1a"/>
        </g>
      </g>
      <g id="Group_922" data-name="Group 922" transform="translate(17.65 30.771)">
        <g id="Group_921" data-name="Group 921">
          <path id="Path_577" data-name="Path 577" d="M208.362,308.744a1.01,1.01,0,0,0,0,2.018A1.01,1.01,0,0,0,208.362,308.744Z" transform="translate(-207.387 -308.744)" fill="#1a1a1a"/>
        </g>
      </g>
    </g>
  </g>
</svg>
